<svg aria-hidden="true" style="position: absolute; width: 0; height: 0; overflow: hidden;" version="1.1" xmlns="http://www.w3.org/2000/svg" xmlns:xlink="http://www.w3.org/1999/xlink">
<defs>
<symbol id="icon-arrow-down" viewBox="0 0 32 32">
<path fill="#008cef" style="fill: var(--color1, #008cef)" d="M16.154 2.406c-0.255 0-0.5 0.101-0.681 0.282s-0.282 0.425-0.282 0.681v22.708l-6.058-6.060c-0.181-0.181-0.426-0.282-0.682-0.282s-0.501 0.102-0.682 0.282c-0.181 0.181-0.282 0.426-0.282 0.682s0.102 0.501 0.282 0.682l7.702 7.702c0.089 0.090 0.196 0.161 0.313 0.209s0.242 0.074 0.369 0.074c0.127 0 0.252-0.025 0.369-0.074s0.223-0.12 0.313-0.209l7.702-7.702c0.090-0.090 0.161-0.196 0.209-0.313s0.073-0.242 0.073-0.369c0-0.256-0.101-0.501-0.282-0.682s-0.426-0.282-0.682-0.282-0.501 0.102-0.682 0.282l-6.058 6.060v-22.708c0-0.255-0.101-0.5-0.282-0.681s-0.425-0.282-0.681-0.282z"></path>
</symbol>
<symbol id="icon-burger-menu" viewBox="0 0 32 32">
<path d="M32 9c0 0.552-0.448 1-1 1h-30c-0.552 0-1-0.448-1-1s0.448-1 1-1h30c0.552 0 1 0.448 1 1zM32 25c0 0.552-0.448 1-1 1h-30c-0.552 0-1-0.448-1-1s0.448-1 1-1h30c0.552 0 1 0.448 1 1zM32 16.992c0 0.548-0.444 0.992-0.992 0.992h-30.016c-0.548 0-0.992-0.444-0.992-0.992s0.444-0.992 0.992-0.992h30.016c0.548 0 0.992 0.444 0.992 0.992z"></path>
</symbol>
<symbol id="icon-loading" viewBox="0 0 32 32">
<path fill="none" stroke="#487996" style="stroke: var(--color2, #487996)" stroke-linejoin="round" stroke-linecap="round" stroke-miterlimit="4" stroke-width="1.0323" d="M16 0.516v4.424"></path>
<path fill="none" stroke="#487996" style="stroke: var(--color2, #487996)" stroke-linejoin="round" stroke-linecap="round" stroke-miterlimit="4" stroke-width="1.0323" d="M27.060 4.941l-3.318 3.318"></path>
<path fill="none" stroke="#487996" style="stroke: var(--color2, #487996)" stroke-linejoin="round" stroke-linecap="round" stroke-miterlimit="4" stroke-width="1.0323" d="M4.94 4.941l3.318 3.318"></path>
<path fill="none" stroke="#487996" style="stroke: var(--color2, #487996)" stroke-linejoin="round" stroke-linecap="round" stroke-miterlimit="4" stroke-width="1.0323" d="M16 31.483v-4.424"></path>
<path fill="none" stroke="#487996" style="stroke: var(--color2, #487996)" stroke-linejoin="round" stroke-linecap="round" stroke-miterlimit="4" stroke-width="1.0323" d="M27.060 27.060l-3.318-3.318"></path>
<path fill="none" stroke="#487996" style="stroke: var(--color2, #487996)" stroke-linejoin="round" stroke-linecap="round" stroke-miterlimit="4" stroke-width="1.0323" d="M4.94 27.060l3.318-3.318"></path>
<path fill="none" stroke="#487996" style="stroke: var(--color2, #487996)" stroke-linejoin="round" stroke-linecap="round" stroke-miterlimit="4" stroke-width="1.0323" d="M0.516 16h4.424"></path>
<path fill="none" stroke="#487996" style="stroke: var(--color2, #487996)" stroke-linejoin="round" stroke-linecap="round" stroke-miterlimit="4" stroke-width="1.0323" d="M27.060 16h4.424"></path>
</symbol>
<symbol id="icon-tel" viewBox="0 0 32 32">
<path d="M25.64 20.347l-3.387-0.387c-0.398-0.047-0.802-0.003-1.181 0.129s-0.723 0.347-1.006 0.631l-2.453 2.453c-3.785-1.925-6.862-5.002-8.787-8.787l2.467-2.467c0.573-0.573 0.853-1.373 0.76-2.187l-0.387-3.36c-0.076-0.65-0.388-1.25-0.877-1.686s-1.121-0.675-1.776-0.674h-2.307c-1.507 0-2.76 1.253-2.667 2.76 0.707 11.387 9.813 20.48 21.187 21.187 1.507 0.093 2.76-1.16 2.76-2.667v-2.307c0.013-1.347-1-2.48-2.347-2.64z"></path>
</symbol>
<symbol id="icon-clip" viewBox="0 0 32 32">
<path  d="M5.727 30.545c-1.354 0-2.556-0.508-3.606-1.525-1.111-1.075-1.667-2.38-1.667-3.915s0.556-2.84 1.667-3.915l17.424-17.889c0.889-0.88 1.914-1.447 3.076-1.701s2.338-0.186 3.53 0.205c1.192 0.391 2.293 1.065 3.303 2.023 0.323 0.332 0.621 0.699 0.894 1.1s0.495 0.821 0.667 1.261c0.172 0.44 0.303 0.904 0.394 1.393s0.136 0.978 0.136 1.466c-0.040 2.072-0.768 3.803-2.182 5.191l-13.182 13.548c-0.182 0.195-0.404 0.298-0.667 0.308s-0.49-0.073-0.682-0.249c-0.192-0.176-0.293-0.396-0.303-0.66s0.076-0.494 0.258-0.689l13.182-13.548c1.071-1.056 1.616-2.366 1.636-3.93s-0.495-2.845-1.545-3.842c-0.647-0.645-1.364-1.134-2.152-1.466s-1.636-0.44-2.545-0.323-1.717 0.518-2.424 1.202l-17.424 17.889c-0.747 0.723-1.121 1.593-1.121 2.61s0.374 1.887 1.121 2.61c0.343 0.332 0.717 0.582 1.121 0.748s0.828 0.23 1.273 0.191c0.889-0.039 1.717-0.44 2.485-1.202l13.849-14.252c0.101-0.098 0.197-0.2 0.288-0.308s0.187-0.235 0.288-0.381c0.101-0.147 0.182-0.303 0.242-0.469s0.101-0.332 0.121-0.499c0.020-0.166-0.010-0.337-0.091-0.513s-0.202-0.342-0.364-0.499c-0.384-0.391-0.758-0.567-1.121-0.528-0.384 0.039-0.818 0.283-1.303 0.733l-10.424 10.733c-0.121 0.117-0.263 0.2-0.424 0.249s-0.328 0.054-0.5 0.015c-0.172-0.039-0.318-0.117-0.439-0.235-0.202-0.176-0.303-0.391-0.303-0.645s0.091-0.479 0.273-0.674l10.424-10.762c0.828-0.782 1.667-1.212 2.515-1.29 0.97-0.078 1.859 0.274 2.667 1.056 0.768 0.723 1.106 1.574 1.015 2.551s-0.581 1.896-1.47 2.757l-13.848 14.282c-1.131 1.095-2.394 1.681-3.788 1.76-0.040 0-0.086 0.005-0.136 0.015s-0.096 0.015-0.136 0.015z"></path>
</symbol>
<symbol id="icon-close-cross" viewBox="0 0 32 32">
<path d="M18.452 16l12.678-12.678c0.285-0.333 0.434-0.761 0.417-1.198s-0.198-0.853-0.508-1.163c-0.31-0.31-0.725-0.491-1.163-0.508s-0.866 0.132-1.198 0.417l-12.678 12.678-12.678-12.696c-0.333-0.285-0.761-0.434-1.198-0.417s-0.853 0.198-1.163 0.508c-0.31 0.31-0.491 0.725-0.508 1.163s0.132 0.866 0.417 1.198l12.678 12.696-12.696 12.678c-0.182 0.156-0.33 0.348-0.434 0.563s-0.163 0.451-0.172 0.69c-0.009 0.239 0.031 0.478 0.119 0.701s0.22 0.426 0.39 0.595c0.169 0.169 0.372 0.302 0.595 0.39s0.462 0.128 0.702 0.119c0.24-0.009 0.475-0.068 0.69-0.172s0.408-0.252 0.564-0.434l12.696-12.678 12.678 12.678c0.333 0.285 0.761 0.434 1.198 0.417s0.853-0.198 1.163-0.508c0.31-0.31 0.491-0.725 0.508-1.163s-0.132-0.866-0.417-1.198l-12.678-12.678z"></path>
</symbol>
<symbol id="icon-nav-arrow" viewBox="0 0 107 32">
<path fill="#008cef" style="fill: var(--color1, #008cef)" d="M53.333 32l-46.188-32h92.376l-46.188 32z"></path>
</symbol>
</defs>
</svg>
